<?xml version="1.0" standalone="no"?>
<!DOCTYPE svg PUBLIC "-//W3C//DTD SVG 1.1//EN" "http://www.w3.org/Graphics/SVG/1.1/DTD/svg11.dtd" >
<!--
2013-9-30: Created.
-->
<svg>
<metadata>
Created by iconfont
</metadata>
<defs>

<font id="iconfont" horiz-adv-x="1024" >
  <font-face
    font-family="iconfont"
    font-weight="500"
    font-stretch="normal"
    units-per-em="1024"
    ascent="896"
    descent="-128"
  />
    <missing-glyph />
    
    <glyph glyph-name="x" unicode="x" horiz-adv-x="1001"
d="M281 543q-27 -1 -53 -1h-83q-18 0 -36.5 -6t-32.5 -18.5t-23 -32t-9 -45.5v-76h912v41q0 16 -0.5 30t-0.5 18q0 13 -5 29t-17 29.5t-31.5 22.5t-49.5 9h-133v-97h-438v97zM955 310v-52q0 -23 0.5 -52t0.5 -58t-10.5 -47.5t-26 -30t-33 -16t-31.5 -4.5q-14 -1 -29.5 -0.5
t-29.5 0.5h-32l-45 128h-439l-44 -128h-29h-34q-20 0 -45 1q-25 0 -41 9.5t-25.5 23t-13.5 29.5t-4 30v167h911zM163 247q-12 0 -21 -8.5t-9 -21.5t9 -21.5t21 -8.5q13 0 22 8.5t9 21.5t-9 21.5t-22 8.5zM316 123q-8 -26 -14 -48q-5 -19 -10.5 -37t-7.5 -25t-3 -15t1 -14.5
t9.5 -10.5t21.5 -4h37h67h81h80h64h36q23 0 34 12t2 38q-5 13 -9.5 30.5t-9.5 34.5q-5 19 -11 39h-368zM336 498v228q0 11 2.5 23t10 21.5t20.5 15.5t34 6h188q31 0 51.5 -14.5t20.5 -52.5v-227h-327z" />
    

    
    <glyph glyph-name="icon" unicode="&#58880;" d="M380.201743 541.828744c34.053584 0 61.761646 27.709085 61.761646 61.763692 0 34.06791-27.709085 61.778019-61.761646 61.778019-34.068933 0-61.778019-27.709085-61.778019-61.778019C318.423725 569.537829 346.13281 541.828744 380.201743 541.828744zM942.141132 595.185976c-4.181229-1.990331-63.022359-20.077268-150.033062 34.297131C702.692598 684.830669 648.576073 697.806191 622.628098 700.339898c-3.021823 3.923356-8.707312 9.365298-18.201547 9.365298-14.005992 0-24.572652-11.241019-24.572652-26.149567l0 0 0-145.04956c-1.934049-0.487094-3.37998-1.660826-4.582365-2.691295-0.230244-0.128937-0.459464-0.257873-0.673335-0.401136L329.250304 535.413638c-2.26253 0-4.397147-1.073448-5.743818-2.87856l-101.20089-144.648424c-1.889023-3.123131-6.27082-10.983145-6.27082-16.711614 0-16.810874 15.364943-31.547507 32.894178-31.547507 6.056949 0 13.963013 1.202385 20.964474 10.17985l4.13825 4.64274 48.058552 70.110801 0-63.954591 0-19.001773 0-200.013383c0 0 0-9.31925 0-10.739599 0-2.233877 0.472767-4.137227 0.772596-6.17156 0.744967-4.969175 2.048659-9.537214 4.539386-13.214976C166.141436 81.076942 66.717006 11.005027 66.717006-73.21205c0-3.948939 3.208065-7.160073 7.160073-7.160073l0 0 854.846462 0 0 0c0.099261 0 0.187265 0 0.285502 0 3.950985 0 7.160073 3.211135 7.160073 7.160073 0 0.731664-0.11461 1.431605-0.301875 2.093684-1.917676 87.450724-123.896798 164.309206-298.732755 188.408067l0 362.690416c2.605338 0.100284 5.327332 0.157589 8.162914 0.157589 37.761022 0 74.221422-9.82374 107.87387-28.884864 91.949178-62.392002 148.715043-71.716368 174.376493-71.716368l0 0c13.920034 0 20.951171 2.607384 21.709441 2.90619 2.693342 1.060145 4.483104 3.638877 4.54041 6.529717 3.621481 198.336184-0.273223 202.289216-2.848884 204.923206C948.871417 596.016901 944.863127 596.461015 942.141132 595.185976zM732.79315 558.154571c-0.830925 1.288343-0.844228 2.935865-0.056282 4.238534 0.787946 1.303692 2.319835 1.961678 3.76679 1.933025l36.572964-3.064802 23.257703 28.382421c0.972141 1.189082 2.533706 1.689479 4.00829 1.3743 1.489934-0.342808 2.64934-1.503237 2.994194-2.992147l8.391111-35.728736 34.181497-13.361309c1.419326-0.558725 2.405793-1.862417 2.535753-3.394307 0.128937-1.517563-0.600681-2.978844-1.919722-3.780093l-31.389918-19.017122-2.13257-36.646642c-0.088004-1.517563-1.031493-2.864234-2.436492-3.464915-0.499373-0.214894-1.029446-0.315178-1.559519-0.315178-0.946558 0-1.87572 0.329505-2.62171 0.974188l-27.779693 23.986297-35.498492-9.279341c-1.476631-0.415462-3.050476 0.100284-4.03899 1.245364-1.001817 1.160429-1.260713 2.778276-0.673335 4.182252l14.220886 33.837666L732.79315 558.154571zM571.920206 123.391676c-23.471574 1.918699-45.650713 3.724835-68.921719 3.724835-37.777395 0-75.126025-2.035356-111.225197-6.058996 1.445932 5.999644 2.13257 13.202697 2.13257 21.881356 0 1.045819-0.056282 3.279696-0.11461 5.498224l-0.099261 186.478112 5.985318 0 60.518329-173.575244c0.157589-0.427742 0.358157-0.859577 0.601704-1.25969 6.916527-16.109909 25.518187-25.418926 42.543955-20.834514 9.366322 2.490727 16.842597 8.176217 21.037129 15.994276 4.066619 7.575536 4.940522 16.884552 2.434445 26.250874-0.729617 2.718925-2.706645 6.743588-3.965312 9.0624l-71.873957 170.768315L450.9736 478.1177l128.882346 0 0-355.357404L571.920206 123.391676z"  horiz-adv-x="1024" />

    
    <glyph glyph-name="jianchayanshouguanli" unicode="&#59085;" d="M241.819023 408.054995l370.525871 0 0-30.870078L241.819023 377.184917 241.819023 408.054995zM509.639744-85.961422 149.194462-85.961422 149.194462 469.808454l216.133525 0L365.327988 685.941979l339.641467 0 0-463.152479c21.456684 0 42.175565-3.139503 61.742203-8.962116L766.711657 655.071901 766.711657 747.696462l-463.138152 0L87.43998 531.562936l0-679.190837 466.258213-0.068562C535.613302-129.973822 520.631076-109.101445 509.639744-85.961422zM241.819023 346.299489l370.525871 0 0-30.870078L241.819023 315.429411 241.819023 346.299489zM241.819023 284.545006l370.525871 0 0-30.870078L241.819023 253.674928 241.819023 284.545006zM241.819023 222.790524 457.953571 222.790524l0-30.870078L241.819023 191.920446 241.819023 222.790524zM704.970478 76.12721c-21.309328 0-38.597063-17.295921-38.597063-38.606273 0-21.298072 17.287735-38.59911 38.597063-38.59911 21.297049 0 38.598086 17.301038 38.598086 38.59911C743.568565 58.831288 726.267527 76.12721 704.970478 76.12721M704.970478 191.920446c-127.892809 0-231.587496-154.398486-231.587496-154.398486s103.693664-154.391323 231.587496-154.391323c127.893832 0 231.587496 154.391323 231.587496 154.391323S832.86431 191.920446 704.970478 191.920446M704.970478-58.972744c-53.2856 0-96.494705 43.220361-96.494705 96.494705 0 53.305043 43.209104 96.500844 96.494705 96.500844 53.286624 0 96.495728-43.195801 96.495728-96.500844C801.466206-15.752384 758.257102-58.972744 704.970478-58.972744"  horiz-adv-x="1024" />

    
    <glyph glyph-name="tongxunlu" unicode="&#58966;" d="M795.079752 834.374454 227.09467 834.374454c-61.436234 0-111.242594-49.805336-111.242594-111.242594l0-85.808318 113.561405 0 0-90.150206L115.852076 547.173336 115.852076 431.006594l113.561405 0 0-90.150206L115.852076 340.856387l0-116.171859 113.561405 0 0-90.150206L115.852076 134.534322l0-85.808318c0-61.436234 49.805336-111.242594 111.242594-111.242594l567.985082 0c61.440327 0 111.242594 49.805336 111.242594 111.242594L906.322345 723.132884C906.321322 784.569118 856.519056 834.374454 795.079752 834.374454zM761.124406 153.877879c-1.412163-0.216941-2.797719-0.38067-4.155646-0.38067-10.483772 0-19.825534 7.441483-21.835308 18.142196-16.892739 89.732697-95.544053 154.804738-187.015348 154.804738-91.14486 0-169.741939-64.800865-186.879248-154.152892-2.335185-12.05864-13.959943-19.989263-26.045189-17.653055-12.085246 2.28095-19.989263 13.959943-17.680684 26.018583 17.683754 92.167143 88.612177 162.514327 177.010483 183.362144-48.12916 20.840654-81.927941 68.718081-81.927941 124.400265 0 74.741261 60.808948 135.576815 135.576815 135.576815s135.576815-60.835553 135.576815-135.576815c0-55.689347-33.805944-103.572914-81.944314-124.410498 88.660272-20.912285 159.615301-91.559299 177.054485-184.112228C781.140275 167.837822 773.183046 156.159852 761.124406 153.877879zM639.262964 488.420211c0 50.189076-40.873919 91.036389-91.090625 91.036389-50.216705 0-91.090625-40.84629-91.090625-91.036389s40.873919-91.036389 91.090625-91.036389C598.389044 397.383822 639.262964 438.230112 639.262964 488.420211z"  horiz-adv-x="1024" />

    
    <glyph glyph-name="z080" unicode="&#58970;" d="M878.091-128c-195.421 0-390.841 0-586.261 0 0.438 4.248 0.695 8.524 1.348 12.74 1.529 9.855 2.399 19.913 5.045 29.473 8.218 29.679 24.715 54.189 48.761 73.402 15.408 12.312 32.58 21.227 51.744 26.63 16.269 4.587 32.838 5.618 49.458 6.134 18.428 0.568 36.889 0.129 55.337 0.129 2.286 0 4.572 0 6.937 0 0 75.536 0 150.135 0 223.333-19.731 6.421-38.986 12.177-57.878 18.943-42.262 15.134-79.352 39.151-112.634 68.855-19.413 17.329-37.112 36.521-51.87 58.152-1.904 2.791-3.47 3.56-7.209 2.586-26.451-6.894-53.145-10.128-80.687-7.359-19.229 1.934-37.811 5.711-55.863 12.187-28.197 10.119-53.221 25.702-75.098 46.070-13.507 12.577-25.238 26.783-34.976 42.577-16.6 26.927-28.2 55.618-31.685 87.3-0.614 5.59-1.697 11.127-2.561 16.691 0 53.415 0 106.83 0 160.245 72.82 0 145.639 0 218.871 0 0 49.198 0 97.557 0 145.913 244.057 0 488.118 0 732.175 0 0-48.512 0-97.024 0-145.913 73.54 0 146.206 0 218.871 0 0-53.415 0-106.83 0-160.245-0.438-1.093-1.226-2.175-1.255-3.281-0.489-18.26-4.512-35.78-10.392-53.013-12.6-36.928-33-68.479-62.521-94.285-14.709-12.858-30.621-23.458-47.955-32.382-26.563-13.672-54.889-20.516-84.354-22.714-21.281-1.589-42.775-0.352-63.236 5.576-11.771 3.411-19.493 3.030-24.66-8.796-0.651-1.49-2.487-2.416-3.512-3.797-16.94-22.773-37.083-42.515-59.196-60.051-25.065-19.879-52.28-36.459-81.84-49.092-23.071-9.863-46.824-17.38-71.392-22.782 0-74.737 0-149.49 0-224.404 1.213-0.127 2.045-0.278 2.882-0.293 25.090-0.449 50.178-1.032 75.271-1.27 15.336-0.147 29.887-3.53 44.259-8.65 30.752-10.952 54.588-30.745 72.379-57.564 16.171-24.365 23.019-51.914 23.696-81.042zM89.863 675.707c0-30.628-0.65-60.678 0.248-90.68 0.529-17.669 7.538-33.881 16.793-48.924 18.088-29.398 43.524-49.308 76.777-58.95 19.239-5.579 38.713-6.553 58.439-2.972-0.081 0.94-0.026 1.387-0.166 1.764-16.826 45.203-23.82 92.009-23.111 140.119 0.259 17.578 0.041 35.166 0.041 52.749 0 2.272 0 4.543 0 6.896-43.796-0.002-86.541-0.002-129.020-0.002zM952.274 675.564c-1.298-38.345-2.048-75.95-4.107-113.484-0.786-14.343-3.893-28.677-7.178-42.728-3.548-15.168-8.542-29.999-12.954-45.143 15.678-3.288 31.493-3.073 46.931 0.098 30.818 6.328 56.717 21.305 76.763 46.078 18.896 23.349 29.394 49.65 29.582 79.803 0.143 22.792 0.029 45.586 0.029 68.377 0 2.296 0 4.59 0 6.999-43.78 0.002-86.678 0.002-129.067 0.002z"  horiz-adv-x="1170" />

    
    <glyph glyph-name="jiaoxuechengguo" unicode="&#58919;" d="M988.18326 654.475178c-6.483668 7.366781-15.816221 11.583826-25.632797 11.583826l-92.507904 0c2.799766 30.173207 4.575202 60.639079 4.575202 91.466178 0 11.250228-0.249687 23.13286-0.800225 36.283368l-0.533143 13.649881c-0.716314 18.316158-15.767102 32.800034-34.099632 32.800034L215.932957 840.258465c-18.283412 0-33.316803-14.399965-34.099632-32.667004l-0.583285-13.566994c-0.533143-12.300141-0.800225-24.232914-0.800225-36.500309 0-30.827099 1.775436-61.293995 4.575202-91.466178L92.533486 666.057981c-9.816576 0-19.150152-4.217045-25.63382-11.583826-6.466272-7.366781-9.466606-17.166985-8.217149-26.89965l2.067079-16.099676c13.366426-104.216573 72.900334-176.116113 159.216211-192.317097l23.349801-4.383844c0.74599-0.13917 1.474584-0.116657 2.216481-0.204661 9.130961-21.823028 18.842137-43.002396 29.716812-62.762439 30.867008-56.099692 67.100234-100.666724 107.71628-132.517129 35.091216-27.510564 72.134901-44.264133 110.435205-50.591235L493.400387 29.433612 391.002228 29.433612c-18.85237 0-34.133402-15.281031-34.133402-34.133402 0-18.85237 15.281031-34.133402 34.133402-34.133402l273.066189 0c18.85237 0 34.133402 15.281031 34.133402 34.133402 0 18.85237-15.281031 34.133402-34.133402 34.133402L561.668213 29.433612 561.668213 168.698422c38.300304 6.325056 75.350129 23.079648 110.447485 50.593282 40.599673 31.816636 76.850295 76.400041 107.71628 132.499733 10.872628 19.751856 20.580734 40.939411 29.716812 62.778812 0.741897 0.088004 1.470491 0.064468 2.216481 0.204661l23.349801 4.383844c86.333274 16.19996 145.866159 88.099501 159.216211 192.317097l2.067079 16.099676C997.649865 637.308193 994.649532 647.108397 988.18326 654.475178zM132.399449 597.792201l61.252039 0c3.41068-20.487613 7.310499-40.794102 12.048407-60.749596 3.797489-16.000416 8.06263-31.575136 12.620435-46.860261C175.814238 504.156614 144.885831 542.714791 132.399449 597.792201zM782.933619 552.808684c-14.882965-62.766532-36.050054-119.316479-62.899562-168.099533-26.417673-48.000224-56.701396-85.584214-90.017176-111.683638-66.300009-51.933813-138.733715-51.916417-204.933439 0-33.333176 26.133194-63.6169 63.699788-90.033549 111.683638-26.883277 48.849568-48.050366 105.399515-62.916958 168.099533-15.533788 65.416895-23.416316 134.283356-23.416316 204.716498 0 4.866844 0.050142 9.667174 0.13303 14.46648l557.349861 0c0.100284-4.983501 0.150426-9.783831 0.150426-14.46648C806.349935 687.09204 798.466384 618.225579 782.933619 552.808684zM836.745199 490.177228c4.558829 15.285125 8.822946 30.860868 12.620435 46.864354 4.737908 19.956517 8.637728 40.261982 12.048407 60.749596l61.268412 0C910.212444 542.706605 879.272781 504.146381 836.745199 490.177228z"  horiz-adv-x="1024" />

    
    <glyph glyph-name="jiaoliu-copy" unicode="&#58890;" d="M583.233 429.579c-5.751 8.298-13.75 17.569-23.965 27.8-3.206-1.918-6.711-4.793-10.545-8.627v22.047h30.676v24.924h-30.676v31.634c7.669 1.273 15.652 2.546 23.965 3.834 6.38 0.629 9.9 1.587 10.545 2.875-3.205 8.298-9.271 17.255-18.213 26.84-0.645 0-3.206-0.644-7.669-1.918-22.378-6.396-46.972-10.874-73.813-13.421 0.629-1.918 1.918-5.437 3.834-10.545 3.191-7.039 5.423-12.148 6.711-15.337 2.546 0 6.38 0.629 11.503 1.917 6.38 0.629 11.173 1.273 14.378 1.918v-27.8h-34.509v-24.924h28.759c-5.752-19.816-16.627-39.303-32.593-58.475 2.547-3.205 5.752-8.312 9.586-15.337 3.191-4.478 5.423-7.668 6.711-9.585 8.298 10.858 15.651 22.048 22.047 33.551v-81.481h28.759v91.066c1.918-2.561 4.793-5.752 8.629-9.586 5.106-5.752 7.983-8.956 8.626-9.586 8.94 7.672 14.692 13.738 17.253 18.216zM206.996 773.787c-12.536-1.496-23.387-7.764-28.626-16.65-8.699-14.406-1.028-30.029 18.429-37.793l5.051-2.059 319.461-0.748c217.215-0.468 322.081-1.029 327.694-1.684 19.549-2.339 27.128-8.981 31.243-27.129 1.404-6.455 1.591-25.539 2.059-228.254l0.561-221.238 2.153-5.612c8.327-22.076 27.691-29.374 42.75-16.183 5.052 4.49 8.513 10.009 10.852 17.679 1.684 5.52 1.776 13.191 1.776 242.661v236.954l-1.965 6.361c-8.699 28.064-34.332 49.58-63.8 53.602-8.603 1.217-657.816 1.217-667.638 0.093v0zM141.513 655.825c-14.781-2.526-30.683-10.758-41.628-21.796-7.764-7.858-12.723-15.061-17.307-25.35l-3.274-7.483-0.28-215.344-0.187-215.345 2.713-7.578c8.606-23.387 27.129-40.599 52.012-48.365l8.42-2.619 150.61-0.935 0.469-59.87c0.468-59.216 0.468-59.964 2.526-65.014 7.109-17.494 24.603-21.985 42.751-10.946 2.899 1.776 30.59 28.533 71.188 68.665l66.419 65.763h144.529c87.652 0 149.395 0.374 156.784 0.935 35.735 2.712 54.725 15.247 62.865 41.161 1.402 4.77 1.589 21.514 1.776 227.131 0.374 243.688 0.655 227.786-5.239 239.478-8.044 15.903-26.473 29.654-48.269 35.922l-7.483 2.151-317.123 0.093c-186.439 0.092-319.181-0.188-322.269-0.656v0zM272.104 441.603c17.868-3.18 33.584-17.867 38.26-35.548 5.799-21.61-5.144-44.81-25.912-55.006-19.74-9.729-41.815-5.52-57.157 11.039-19.272 20.86-15.997 53.134 7.015 70.534 10.946 8.231 24.323 11.412 37.794 8.98v0zM468.551 441.603c17.68-3.18 33.769-17.961 38.26-34.986 4.303-16.652-0.469-34.145-12.63-46.306-9.729-9.729-20.673-14.22-34.611-14.22-22.825 0.093-42.564 16.091-47.334 38.448-1.777 8.42-1.684 12.536 0.561 21.235 3.368 13.096 12.347 24.415 24.509 30.777 10.197 5.427 20.3 7.017 31.245 5.052v0zM664.999 441.603c7.578-1.403 17.867-6.455 23.762-11.786 17.867-16.090 21.235-42.377 7.951-62.396-14.406-21.796-44.529-28.064-66.512-13.844-11.506 7.483-19.926 20.393-21.983 33.957-3.741 23.854 13.658 48.458 37.885 53.696 7.202 1.59 11.881 1.683 18.896 0.374v0z"  horiz-adv-x="1024" />

    
    <glyph glyph-name="kexieyaowen" unicode="&#59725;" d="M628.737236 431.092551 474.776725 277.157623 515.589246 236.346125 669.497569 390.28003ZM536.356222 215.604732 577.166697 174.792211 731.078089 328.726116 690.264545 369.487471ZM567.131133 492.645442 413.223834 338.711538 454.009749 297.950182 607.944678 451.832921ZM796.335349 409.734104l-27.559683 27.5341L621.66005 584.410426l43.154869 43.152822c23.108301 23.083741 34.815947 53.653991 34.764781 83.941807 0.052189 30.286794-11.656481 60.858066-34.764781 83.965343-23.13286 23.160489-53.704133 34.792411-83.966367 34.740222-30.28884 0.052189-60.833507-11.631922-83.96739-34.740222L238.317269 535.671375c-3.731998-2.932796-7.28287-6.097882-10.704806-9.469676-23.108301-23.133883-34.764781-53.679573-34.713616-83.992973-0.050142-30.262234 11.605316-60.781318 34.740222-83.940784L402.337903 183.591621l-43.180452-43.128263c-23.107277-23.108301-34.790364-53.652967-34.764781-83.939761-0.025583-30.315446 11.657504-60.860113 34.790364-83.992973 23.056112-23.055089 53.577243-34.765805 83.838454-34.740222l0.127913 0c30.236652 0 60.781318 11.633968 83.915201 34.740222l0.025583 0 269.243117 269.269723c23.13286 23.133883 34.815947 53.680597 34.765805 83.992973C831.152319 356.054531 819.469232 386.625804 796.335349 409.734104zM537.744849 754.710067c11.939937 11.887748 27.406187 17.756409 43.103704 17.807574 15.722076-0.051165 31.160697-5.867638 43.154869-17.85874 11.964496-11.992125 17.857716-27.431769 17.857716-43.153846 0-15.724123-5.89322-31.163767-17.857716-43.154869l-17.062608-17.036002L426.759105 471.107917c-5.042853 20.225647-15.491833 39.396265-31.239492 55.093782-15.491833 15.541975-34.431184 25.91216-54.32221 31.033807L537.744849 754.710067zM486.27971 13.343145c-11.992125-11.93789-27.457352-17.805528-43.2572-17.85874-15.619746 0.053212-31.085996 5.92085-43.051515 17.85874-11.991102 11.993149-17.83418 27.458375-17.884322 43.180452 0.050142 15.697517 5.89322 31.16172 17.85874 43.128263l43.179428 43.179428 15.619746-15.644305 27.535123-27.510564c11.992125-11.991102 17.832134-27.480888 17.857716-43.152822C504.111844 40.801521 498.271836 25.336294 486.27971 13.343145zM755.549433 282.613892 558.177204 85.266222c-5.042853 20.202111-15.337313 39.450501-31.084972 55.197136l-27.559683 27.508517-231.107565 231.134171c-11.94096 11.991102-17.807574 27.431769-17.83418 43.10268 0.025583 15.748682 5.89322 31.18935 17.83418 43.179428 12.015661 11.991102 27.456329 17.85874 43.179428 17.910928 15.696494-0.052189 31.162744-5.919826 43.153846-17.85874 11.965519-12.017708 17.832134-27.482935 17.884322-43.231617-0.052189-15.669888-5.918803-31.137161-17.884322-43.10268l40.760332-40.838104 185.328939 185.328939L728.01431 396.455683l27.535123-27.559683c11.965519-11.965519 17.85874-27.406187 17.85874-43.10268C773.408173 310.044638 767.514953 294.604994 755.549433 282.613892z"  horiz-adv-x="1024" />

    
    <glyph glyph-name="chaxuntongji" unicode="&#58928;" d="M1015.111051-41.596118 723.051275 252.387473c118.749568 156.845211 106.645902 381.213281-36.368302 524.226462-156.304905 156.304905-409.726685 156.304905-566.031591 0-156.304905-156.26909-156.304905-409.691893 0-565.996798 142.963039-142.963039 367.155101-155.137313 523.988032-36.58115l292.124244-294.01429c9.598612-9.597589 25.205055-9.597589 34.801621 0l43.546795 43.546795C1024.743432-66.799126 1024.743432-51.19473 1015.111051-41.596118zM194.804243 282.602635c-114.784256 114.783233-114.784256 300.878628 0 415.627069 114.78528 114.784256 300.841789 114.784256 415.628092 0 114.78528-114.748441 114.78528-300.843836 0-415.627069C495.646032 167.817356 309.589522 167.817356 194.804243 282.602635z"  horiz-adv-x="1024" />

    
    <glyph glyph-name="tongji" unicode="&#58917;" d="M64 831.997h67.2v-896.002h-67.2v896.002zM960.011 3.934v-67.2h-828.798v67.2h828.798zM187.066 457.171h134.4v-398.536h-134.4v398.536zM388.666 696.293h134.4v-637.657h-134.4v637.657zM590.266 536.883h134.4v-478.242h-134.4v478.242zM791.866 775.993h134.4v-717.367h-134.4v717.367z"  horiz-adv-x="1024" />

    
    <glyph glyph-name="xitongshezhi1" unicode="&#58881;" d="M663.091672 216.497055l-69.965491 28.180829c1.944282 15.547091 0.972141 31.095205-0.970094 45.671179l69.964468 30.124088c15.547091 6.800893 22.350031 24.293289 15.547091 39.841404l-27.208689 62.191434c-5.829775 15.548114-24.293289 22.350031-38.868239 15.548114l-69.965491-29.151947c-9.717316 11.660574-20.405749 22.350031-33.029254 32.066323l28.170596 69.965491c5.829775 15.548114-0.971118 33.039487-16.520255 38.869263l-63.152319 25.26543c-15.548114 5.829775-33.039487-0.972141-39.841404-16.520255l-27.208689-69.965491c-15.548114 0.972141-31.095205 0.972141-46.64332-0.972141l-29.151947 68.993351c-6.801916 15.547091-24.294312 22.350031-39.841404 16.519232l-63.162552-27.208689c-14.575973-6.800893-22.350031-24.293289-15.547091-39.84038l30.123065-68.993351c-11.660574-9.717316-22.349007-20.405749-32.066323-33.038464l-69.965491 28.180829c-15.547091 5.830799-33.038464-1.943258-39.841404-16.520255l-25.26543-64.133669c-5.830799-15.548114 1.943258-33.038464 17.491373-38.869263l69.965491-28.180829c-1.943258-15.547091-1.943258-31.095205 0-45.671179L77.145519 208.724021c-15.548114-6.801916-22.350031-24.293289-15.548114-38.869263l26.236548-63.163575c6.801916-15.547091 24.293289-22.349007 39.841404-15.547091l68.993351 29.151947c9.717316-11.660574 21.37789-22.350031 33.039487-32.067346l-27.208689-69.964468c-6.801916-15.548114 0.972141-33.039487 16.519232-38.869263l63.162552-25.26543c15.548114-5.829775 33.039487 0.972141 38.869263 16.520255l28.180829 69.965491c15.547091-0.972141 31.095205-0.972141 46.64332 0.971118l29.151947-68.992327c6.801916-15.548114 24.293289-22.351054 39.841404-16.520255l62.181201 27.208689c15.547091 6.800893 22.351054 24.293289 16.520255 39.841404l-30.114878 68.993351c11.651364 9.716292 22.340821 21.37789 32.058137 33.038464l69.964468-28.179806c15.548114-5.830799 33.038464 1.942235 38.869263 17.491373l25.264407 63.162552C686.41282 193.175907 678.639786 210.666256 663.091672 216.497055zM322.022693 145.560446c-66.077951 26.236548-98.145297 101.060697-71.90875 166.166507 26.236548 66.077951 101.059674 98.145297 167.138648 71.90875 66.077951-26.237571 98.141204-101.060697 71.90875-166.166507C461.952652 151.391245 388.100644 119.323898 322.022693 145.560446zM958.498682 42.557514l-32.066323 13.603833c0.971118 6.800893 0.971118 13.604856 0 21.378913l32.066323 13.603833c6.80294 2.915399 9.718339 10.688433 6.80294 17.492396l-12.632715 29.150924c-2.915399 6.800893-10.689457 10.688433-17.492396 6.800893l-32.066323-13.603833c-4.858658 5.829775-9.718339 10.689457-15.548114 15.548114l12.632715 32.067346c2.916423 6.800893 0 14.575973-7.774057 17.491373l-29.151947 11.660574c-6.800893 2.915399-14.57495 0-17.491373-7.774057l-12.632715-32.067346c-7.774057 0.972141-14.575973 0.972141-21.378913 0l-13.603833 32.067346c-2.916423 6.801916-11.660574 9.718339-18.463514 6.801916l-29.150924-12.632715c-6.801916-2.916423-9.718339-10.689457-6.801916-17.491373l13.603833-32.06837c-5.829775-4.857635-10.688433-9.716292-14.57495-15.547091l-32.06837 12.633738c-7.774057 2.914376-15.547091 0-18.46249-6.801916l-11.661597-29.151947c-2.915399-7.774057 0.972141-15.548114 7.77508-18.463514l32.067346-12.632715c0-7.774057 0-14.575973 0-21.37789l-31.096229-13.604856c-7.774057-2.915399-10.689457-11.661597-7.774057-18.46249l12.631692-29.151947c2.916423-6.801916 10.689457-9.717316 18.464537-6.801916l31.095205 13.604856c4.857635-4.858658 9.717316-10.688433 15.547091-14.575973l-12.632715-32.067346c-2.915399-7.774057 0-15.547091 7.774057-18.46249l29.151947-11.661597c6.801916-2.916423 14.575973 0.971118 17.491373 7.774057l13.603833 32.066323c6.80294 0 13.604856 0 20.406772 0.972141l13.604856-32.067346c3.886517-6.801916 11.660574-10.688433 18.46249-7.774057l29.150924 12.632715c6.80294 2.915399 9.718339 11.661597 6.80294 18.46249l-13.604856 32.06837c5.830799 3.886517 10.688433 8.745175 14.57495 14.57495l33.039487-12.631692c6.801916-2.916423 14.575973 0.970094 17.491373 7.774057l11.661597 29.150924C969.189162 31.868057 965.301622 39.641091 958.498682 42.557514zM802.050514 10.490168c-31.096229 11.660574-45.672202 46.64332-33.039487 76.766384 11.661597 30.124088 45.671179 44.701085 76.767408 33.039487 30.124088-12.632715 44.700061-46.64332 33.039487-76.767408C866.184183 13.405567 832.174602-2.143571 802.050514 10.490168zM892.421754 645.033132l-40.812521 15.547091c0.971118 9.717316 0.971118 18.46249 0 27.208689l39.841404 16.519232c8.745175 3.886517 12.631692 14.576997 8.745175 23.322172l-15.547091 35.954887c-3.88754 8.745175-13.603833 12.632715-22.350031 8.745175l-39.842427-16.519232c-5.828752 5.829775-11.660574 12.631692-19.433608 18.46249l16.519232 39.841404c2.915399 8.745175-0.971118 19.434631-9.716292 22.349007l-36.926004 14.576997c-8.746198 3.886517-18.463514-0.972141-22.350031-9.717316l-15.548114-39.841404c-8.745175 0.972141-18.46249 0-27.208689-0.971118l-16.520255 39.841404c-3.886517 8.745175-13.603833 13.603833-22.349007 9.717316l-36.927027-15.547091c-8.745175-3.886517-12.631692-14.575973-8.745175-23.322172l17.491373-39.841404c-6.800893-4.858658-13.603833-11.660574-18.46249-18.46249l-40.813544 15.547091c-8.745175 3.886517-18.46249 0-22.350031-9.717316l-14.575973-35.953863c-2.915399-8.746198 0.972141-18.463514 9.717316-22.350031l40.813544-16.519232c-0.972141-8.745175-0.972141-17.491373 0-26.236548l-39.842427-17.491373c-8.745175-2.915399-12.632715-13.603833-8.745175-22.349007l14.575973-35.954887c3.88754-8.746198 14.575973-12.632715 23.322172-8.746198l39.84038 16.520255c5.830799-6.801916 11.661597-12.632715 18.463514-18.46249l-15.547091-39.841404c-3.88754-8.745175 0.971118-19.434631 9.716292-22.349007l35.954887-14.576997c8.746198-3.886517 19.434631 0.972141 22.350031 9.717316l16.520255 39.841404c8.746198-0.972141 17.491373-0.972141 26.236548 0.971118l17.492396-40.812521c3.886517-8.745175 13.603833-12.632715 22.350031-8.745175l35.954887 15.547091c8.744151 3.886517 12.631692 13.604856 9.716292 22.350031l-17.491373 39.84038c6.801916 5.830799 12.632715 12.632715 18.463514 19.434631l39.841404-16.519232c9.716292-2.915399 19.434631 0.972141 23.321148 9.717316l14.575973 36.926004C905.053446 631.428276 901.167952 641.145591 892.421754 645.033132zM696.131159 604.219587c-37.897122 14.575973-56.361659 58.303894-41.784662 96.202039 15.547091 36.926004 58.304917 55.389518 96.202039 40.812521 37.897122-15.547091 56.359612-58.303894 40.812521-96.201016C776.785084 607.134986 734.029304 588.671473 696.131159 604.219587z"  horiz-adv-x="1024" />

    
    <glyph glyph-name="fukuanjihua" unicode="&#59101;" d="M307.2 32c-19.2 0-32 12.8-32 32L275.2 704c0 19.2 12.8 32 32 32l416 0c19.2 0 32-12.8 32-32l0-300.8c12.8-6.4 19.2-6.4 32-12.8L787.2 736C780.8 755.2 768 768 748.8 768L275.2 768C256 768 243.2 755.2 243.2 736l0-704C243.2 12.8 256 0 275.2 0l416 0c-38.4 0-76.8 12.8-108.8 32L307.2 32zM652.8 652.8 371.2 652.8C358.4 652.8 352 640 352 633.6s6.4-12.8 19.2-12.8l281.6 0c12.8 0 19.2 6.4 19.2 12.8S665.6 652.8 652.8 652.8zM652.8 492.8 371.2 492.8c-12.8 0-19.2-6.4-19.2-12.8s6.4-12.8 19.2-12.8l281.6 0c12.8 0 19.2 6.4 19.2 12.8S665.6 492.8 652.8 492.8zM704 390.4c-108.8 0-192-83.2-192-192s83.2-192 192-192 192 83.2 192 192S812.8 390.4 704 390.4zM704 38.4c-89.6 0-160 70.4-160 160 0 89.6 70.4 160 160 160s160-70.4 160-160C864 115.2 793.6 38.4 704 38.4zM716.8 108.8l0-25.6L704 83.2l0 25.6c-38.4 0-57.6 19.2-64 57.6l25.6 6.4c0-25.6 19.2-44.8 38.4-44.8l0 70.4c-38.4 6.4-57.6 25.6-57.6 51.2 0 32 19.2 51.2 57.6 51.2L704 326.4l12.8 0 0-19.2c32 0 51.2-19.2 57.6-51.2l-25.6-6.4c-6.4 19.2-12.8 32-32 32l0-64c44.8-12.8 64-25.6 64-57.6C774.4 128 755.2 108.8 716.8 108.8zM704 224 704 281.6c-19.2 0-32-12.8-32-32C665.6 236.8 678.4 224 704 224zM716.8 192l0-64c19.2 0 32 12.8 32 32C748.8 179.2 736 185.6 716.8 192z"  horiz-adv-x="1024" />

    
    <glyph glyph-name="arrowexpand" unicode="&#59035;" d="M548 476.6 675.8 604.2 576 704 832 704 832 448 732.2 547.8 604.6 420ZM548 291.4 675.8 163.8 576 64 832 64 832 320 732.2 220.2 604.6 348ZM476 291.4 348.2 163.8 448 64 192 64 192 320 291.8 220.2 419.4 348ZM476 476.6 348.2 604.2 448 704 192 704 192 448 291.8 547.8 419.4 420Z"  horiz-adv-x="1024" />

    
    <glyph glyph-name="arrowshrink" unicode="&#59050;" d="M896 711.4 732.2 547.8 832 448 576 448 576 704 675.8 604.2 839.4 768ZM896 56.6 732.2 220.2 832 320 576 320 576 64 675.8 163.8 839.4 0ZM128 56.6 291.8 220.2 192 320 448 320 448 64 348.2 163.8 184.6 0ZM128 711.4 291.8 547.8 192 448 448 448 448 704 348.2 604.2 184.6 768Z"  horiz-adv-x="1024" />

    
    <glyph glyph-name="2" unicode="&#58882;" d="M264.425392-60.919209c0 0 0 505.171478 0 756.334821 79.960123 0 152.294568 0 232.718249 0 0-103.274108 0-310.290999 0-310.290999l116.359125 77.57275 116.359125-77.57275L729.86189 695.415612l155.145499 0c0 0-0.216941-208.815863 0-678.762071 0.056282-78.742389-37.987173-77.57275-58.180074-77.57275C446.079638-61.790042 264.425392-60.919209 264.425392-60.919209zM885.138372 783.343197c-4.906753 0-35.510772 0-38.786375 0-220.052788 0-421.97873-0.046049-642.022309 0-22.943548 0-33.549094-16.96744-33.549094-33.595142-0.379647-12.095479 0-19.060101 0-26.605961 0-16.714683 13.163811-27.555589 34.5724-27.555589 6.05081 0 9.207709 0 20.417005 0 0-251.300466 0-504.859369 0-756.334821-91.774193 0-96.964402 40.489156-96.964402 76.05621 0.086981 171.595146-0.00921 682.651658-0.002047 757.851361-0.008186-2.870374-2.420119 58.180074 58.180074 58.180074 13.69593 0.257873 41.286312-0.264013 54.983265-0.264013 189.802834 0 395.192667 0.162706 584.991408 0.264013C853.785294 831.348538 869.161493 807.674349 885.138372 783.343197zM535.930015 734.201987c56.95006 0 97.937566 0 155.145499 0 0-92.226494 0-178.049139 0-271.504624-28.424376 22.998807-77.57275 58.180074-77.57275 58.180074s-47.994084-34.986839-77.57275-58.180074C535.930015 555.803901 535.930015 641.83837 535.930015 734.201987z"  horiz-adv-x="1024" />

    
    <glyph glyph-name="progressreport" unicode="&#59264;" d="M108.347 425.206c0 106.967-0.039 213.937 0.020 320.903 0.022 38.106 23.288 69.432 59.026 79.252 6.556 1.804 13.53 2.933 20.317 2.938 171.339 0.159 342.68 0.224 514.015 0.053 41.506-0.043 77.18-33.124 78.77-74.492 1.47-38.084 0.816-76.26 0.439-114.385-0.154-15.608-12.69-26.834-27.446-26.359-14.856 0.478-26.138 12.172-26.214 27.81-0.16 34.412-0.041 68.83-0.058 103.247-0.006 20.044-10.545 30.557-30.67 30.557-167.985 0.010-335.98 0.010-503.97 0-19.726 0-30.452-10.678-30.452-30.25-0.004-213.198-0.004-426.391 0-639.589 0-19.375 10.629-29.998 30.010-30.003 61.207-0.006 122.407 0.016 183.614-0.017 14.483-0.010 25.003-8.207 27.966-21.573 3.428-15.436-8.025-30.867-23.813-32.059-1.48-0.112-2.97-0.16-4.46-0.16-61.765-0.010-123.525-0.186-185.29 0.065-36.43 0.15-66.573 21.317-77.33 54.708-3.018 9.357-4.264 19.673-4.295 29.557-0.29 106.599-0.179 213.199-0.179 319.797zM646.15 21.15c-148.502 0.026-268.67 120.416-268.67 269.155 0 148.708 120.75 269.258 269.505 269.046 148.695-0.21 268.836-120.88 268.687-269.876-0.15-148.394-120.64-268.352-269.522-268.325zM646.825 505.596c-118.24 0.273-215.34-96.433-215.61-214.748-0.278-118.6 95.985-215.63 214.256-215.954 118.8-0.324 216.17 95.826 216.467 213.763 0.304 119.649-95.887 216.662-215.113 216.94zM444.83 666.924c48.556 0 97.11 0.021 145.663-0.017 14.404-0.009 24.981-7.52 28.195-19.81 4.366-16.665-7.243-32.724-24.547-33.933-1.295-0.089-2.604-0.053-3.907-0.053-97.107 0-194.218-0.005-291.322 0.011-16.048 0-27.178 9.38-28.98 24.294-1.698 14.078 9.004 27.662 23.11 29.205 2.768 0.299 5.573 0.293 8.356 0.293 47.814 0.015 95.623 0.010 143.432 0.010zM323.249 451.949c-9.854 0-19.739-0.508-29.548 0.132-11.631 0.767-21.004 9.63-23.288 20.748-2.405 11.7 2.53 23.554 12.95 28.897 4.306 2.21 9.503 3.582 14.336 3.705 17.287 0.437 34.592 0.324 51.892 0.128 15.855-0.187 27.672-11.71 27.87-26.754 0.195-14.71-11.132-26.35-26.872-27.060-9.090-0.41-18.225-0.075-27.332-0.075-0.008 0.092-0.008 0.187-0.008 0.279zM666.19 178.804c-34.62 0-62.396 11.792-82.747 35.090-8.165-10.807-19.37-20.82-33.451-29.878l-2.151-1.383h-2.557c-7.154 0-12.084 2.3-14.648 6.833-2.539 4.49-2.015 9.782 1.56 15.73l0.978 1.627 1.564 1.072c20.559 14.078 30.938 26.892 30.017 37.058l-0.035 0.392v63.016l0.118 0.708c0.072 0.438 0.111 0.799 0.132 1.091-0.254 0.022-0.56 0.036-0.927 0.036h-26.798l-2.066 1.24c-5.92 3.55-8.92 7.952-8.92 13.091s3.002 9.542 8.921 13.090l2.067 1.239h28.672c9.371 0 16.573-2.682 21.406-7.973 4.775-5.227 6.811-12.54 6.055-21.739v-10.759c1.094 1.641 2.651 3.329 4.841 4.968l2.319 1.736h27.962v42.625h-24.208l-2.32 1.735c-2.19 1.64-3.748 3.327-4.842 4.967-0.055-12.101-8.216-16.4-15.208-16.4-1.444 0-2.99 0.165-4.595 0.49l-4.16 0.84-1.9 3.795c-9.824 19.637-18.478 35.102-25.721 45.966l-2.133 3.2 0.93 3.73c1.965 7.89 7.591 12.6 15.049 12.6 1.552 0 3.192-0.212 4.873-0.63l3.165-0.786 1.869-2.673c8.447-12.085 17-26.61 25.448-43.212-0.013 0.207-0.020 0.45-0.020 0.694 0 0.005 0 0.010 0 0.015-0 3.269 1.257 8.109 7.247 12.593l2.319 1.734h24.208v27.968l1.743 2.322c4.483 5.972 9.319 7.227 12.586 7.227 3.268 0 8.105-1.254 12.588-7.227l1.743-2.322v-27.968h38.873v27.97l1.743 2.321c4.484 5.972 9.32 7.226 12.587 7.226s8.104-1.254 12.588-7.226l1.743-2.322v-27.969h19.974l2.068-1.242c5.906-3.55 8.903-7.952 8.903-13.086 0-5.135-2.996-9.537-8.902-13.088l-2.070-1.243h-19.973v-42.625h27.478l2.069-1.244c5.906-3.55 8.901-7.953 8.901-13.087s-2.995-9.536-8.901-13.087l-2.070-1.243h-27.477v-68.888h31.23l2.068-1.243c5.907-3.55 8.902-7.952 8.902-13.086 0-5.135-2.995-9.538-8.902-13.087l-2.068-1.244h-84.819c-1.647-0.049-3.3-0.075-4.919-0.075zM634.983 211.953c8.587-3.116 18.034-4.66 28.39-4.66 2.29 0 4.66 0.077 7.040 0.23l0.278 0.020h25.343v68.887h-38.842c-0.929-19.802-8.375-41.436-22.209-64.477zM593.379 249.836c5.115-9.163 10.94-16.818 17.519-22.993 10.802 17.772 16.706 34.402 17.62 49.586h-27.979l-2.319 1.736c-2.19 1.64-3.747 3.327-4.841 4.968v-33.297zM696.035 305.091v42.625h-38.874v-42.625h38.874z"  horiz-adv-x="1024" />

    
    <glyph glyph-name="xiangmuguanli" unicode="&#59122;" d="M477.374 652.248h64.671c5.749 0 10.778 5.03 10.778 10.778s-5.03 10.778-10.778 10.778h-64.671c-5.749 0-10.778-5.03-10.778-10.778s5.03-10.778 10.778-10.778zM574.38 738.475h-129.341c-12.216 0-21.557-9.341-21.557-21.557v-646.706c0-12.216 9.341-21.557 21.557-21.557h129.341c12.216 0 21.557 9.341 21.557 21.557v646.706c0 12.216-9.341 21.557-21.557 21.557zM574.38 70.212h-129.341v646.706h129.341v-646.706zM477.374 609.134h64.671c5.749 0 10.778 5.03 10.778 10.778s-5.03 10.778-10.778 10.778h-64.671c-5.749 0-10.778-5.03-10.778-10.778s5.03-10.778 10.778-10.778zM477.374 566.02h64.671c5.749 0 10.778 5.03 10.778 10.778s-5.03 10.778-10.778 10.778h-64.671c-5.749 0-10.778-5.03-10.778-10.778s5.03-10.778 10.778-10.778zM509.71 113.326c23.712 0 43.114 19.402 43.114 43.114s-19.402 43.114-43.114 43.114-43.114-19.402-43.114-43.114 19.402-43.114 43.114-43.114zM509.71 177.996c12.216 0 21.557-9.341 21.557-21.557s-9.341-21.557-21.557-21.557-21.557 9.341-21.557 21.557 9.341 21.557 21.557 21.557zM261.805 652.248h64.671c5.749 0 10.778 5.03 10.778 10.778s-5.03 10.778-10.778 10.778h-64.671c-5.749 0-10.778-5.03-10.778-10.778s5.03-10.778 10.778-10.778zM358.811 738.475h-129.341c-12.216 0-21.557-9.341-21.557-21.557v-646.706c0-12.216 9.341-21.557 21.557-21.557h129.341c12.216 0 21.557 9.341 21.557 21.557v646.706c0 12.216-9.341 21.557-21.557 21.557zM358.811 70.212h-129.341v646.706h129.341v-646.706zM261.805 609.134h64.671c5.749 0 10.778 5.03 10.778 10.778s-5.03 10.778-10.778 10.778h-64.671c-5.749 0-10.778-5.03-10.778-10.778s5.03-10.778 10.778-10.778zM261.805 566.02h64.671c5.749 0 10.778 5.03 10.778 10.778s-5.03 10.778-10.778 10.778h-64.671c-5.749 0-10.778-5.03-10.778-10.778s5.03-10.778 10.778-10.778zM294.141 113.326c23.712 0 43.114 19.402 43.114 43.114s-19.402 43.114-43.114 43.114-43.114-19.402-43.114-43.114 19.402-43.114 43.114-43.114zM294.141 177.996c12.216 0 21.557-9.341 21.557-21.557s-9.341-21.557-21.557-21.557-21.557 9.341-21.557 21.557 9.341 21.557 21.557 21.557zM692.943 652.248h64.671c5.749 0 10.778 5.03 10.778 10.778s-5.03 10.778-10.778 10.778h-64.671c-5.749 0-10.778-5.03-10.778-10.778s5.03-10.778 10.778-10.778zM789.949 738.475h-129.341c-12.216 0-21.557-9.341-21.557-21.557v-646.706c0-12.216 9.341-21.557 21.557-21.557h129.341c12.216 0 21.557 9.341 21.557 21.557v646.706c0 12.216-9.341 21.557-21.557 21.557zM789.949 70.212h-129.341v646.706h129.341v-646.706zM692.943 609.134h64.671c5.749 0 10.778 5.03 10.778 10.778s-5.03 10.778-10.778 10.778h-64.671c-5.749 0-10.778-5.03-10.778-10.778s5.03-10.778 10.778-10.778zM692.943 566.02h64.671c5.749 0 10.778 5.03 10.778 10.778s-5.03 10.778-10.778 10.778h-64.671c-5.749 0-10.778-5.03-10.778-10.778s5.03-10.778 10.778-10.778zM725.278 113.326c23.712 0 43.114 19.402 43.114 43.114s-19.402 43.114-43.114 43.114-43.114-19.402-43.114-43.114 19.402-43.114 43.114-43.114zM725.278 177.996c12.216 0 21.557-9.341 21.557-21.557s-9.341-21.557-21.557-21.557-21.557 9.341-21.557 21.557 9.341 21.557 21.557 21.557z"  horiz-adv-x="1024" />

    
    <glyph glyph-name="feiyongguanli" unicode="&#59008;" d="M563.2 345.6v64h93.866667c12.8 0 21.333333 8.533333 21.333333 21.333333s-8.533333 21.333333-21.333333 21.333334h-68.266667l55.466667 55.466666c8.533333 8.533333 8.533333 21.333333 0 29.866667-8.533333 8.533333-21.333333 8.533333-29.866667 0l-72.533333-72.533333L469.333333 537.6c-8.533333 8.533333-21.333333 8.533333-29.866666 0-8.533333-8.533333-8.533333-21.333333 0-29.866667l55.466666-55.466666H426.666667c-12.8 0-21.333333-8.533333-21.333334-21.333334s8.533333-21.333333 21.333334-21.333333h93.866666v-64H405.333333c-12.8 0-21.333333-8.533333-21.333333-21.333333s8.533333-21.333333 21.333333-21.333334h115.2v-81.066666c0-12.8 8.533333-21.333333 21.333334-21.333334s21.333333 8.533333 21.333333 21.333334v81.066666h115.2c12.8 0 21.333333 8.533333 21.333333 21.333334s-8.533333 21.333333-21.333333 21.333333h-115.2zM541.866667 635.733333c-140.8 0-251.733333-115.2-251.733334-251.733333 0-140.8 110.933333-256 251.733334-256 140.8 0 251.733333 115.2 251.733333 251.733333 0 68.266667-25.6 132.266667-72.533333 179.2-46.933333 51.2-110.933333 76.8-179.2 76.8z m0-460.8c-119.466667 0-213.333333 93.866667-209.066667 213.333334 0 115.2 93.866667 209.066667 213.333333 209.066666 55.466667 0 110.933333-21.333333 149.333334-64s59.733333-93.866667 59.733333-149.333333c-4.266667-115.2-98.133333-209.066667-213.333333-209.066667zM964.266667 686.933333c0 4.266667 0 8.533333-4.266667 12.8 0 4.266667 0 4.266667-4.266667 8.533334L772.266667 891.733333h-8.533334-4.266666-4.266667L221.866667 896C166.4 896 123.733333 853.333333 123.733333 802.133333v-832c0-25.6 8.533333-51.2 29.866667-68.266666 17.066667-17.066667 42.666667-29.866667 68.266667-29.866667h644.266666c51.2 0 98.133333 42.666667 98.133334 98.133333V686.933333z m-183.466667 132.266667l106.666667-110.933333h-68.266667c-21.333333 0-38.4 17.066667-38.4 38.4V819.2z m85.333333-904.533333v-21.333334 21.333334H221.866667c-12.8 0-25.6 4.266667-38.4 17.066666s-17.066667 25.6-17.066667 38.4V802.133333c0 29.866667 25.6 51.2 55.466667 51.2h516.266666v-102.4c0-46.933333 38.4-81.066667 81.066667-81.066666h102.4v-704c0-29.866667-25.6-51.2-55.466667-51.2z"  horiz-adv-x="1024" />

    
    <glyph glyph-name="yunpingtai_zijinjihuabiao" unicode="&#59279;" d="M479.6928 337.408h201.6256V419.9424h-173.056L727.9104 793.6h-110.592L492.9536 564.4288C459.776 502.3232 439.5008 461.056 432.0768 440.576h-2.0992C408.064 490.3424 346.368 608 244.736 793.6H127.7952l217.5488-373.6576H166.9632v-82.5344h209.0496v-113.7664H166.9632v-83.6096h209.0496V-25.6H479.744v165.632h74.24c0 30.0032 7.2704 58.112 19.3536 83.6096H479.6928V337.408zM750.6944 285.5936a145.5616 145.5616 0 1 1 0-291.1232 145.5616 145.5616 0 0 1 0 291.1232z m102.4-161.7408a10.8032 10.8032 0 0 0-10.8032-10.8032h-97.024a10.8032 10.8032 0 0 0-10.8032 10.8032v86.272c0 5.9392 4.8128 10.8032 10.8032 10.8032h10.8032a10.752 10.752 0 0 0 10.752-10.8032v-64.6656h75.4688c5.9392 0 10.8032-4.8128 10.8032-10.8032v-10.8032z"  horiz-adv-x="1024" />

    
    <glyph glyph-name="ICON--yingyongtuiguang" unicode="&#58895;" d="M105.418958 533.282978c0 16.189727 5.501294 29.811979 16.451694 41.023322 11.002588 11.160177 24.205285 16.765849 39.661301 16.765849h56.111972v-261.857916h-56.111972c-15.456017 0-28.658713 5.553483-39.661301 16.765849a56.429197 56.429197 0 0 0-16.451694 40.971133V533.282978m623.576191 240.429885c25.515117 25.461905 48.725748 39.451524 69.472258 41.913598 20.747533 2.462075 39.190581-3.247974 55.221696-17.237593 16.08535-13.988596 29.706579-34.474163 40.971133-61.507865a506.581594 506.581594 0 0 0 27.610848-90.37738c7.125281-33.217543 12.470009-68.00586 16.08535-104.365976 3.562129-36.307927 5.343705-70.991868 5.343705-103.894232s-2.25332-65.85794-6.706749-98.812493a607.412047 607.412047 0 0 0-19.594267-92.735078 407.65449 407.65449 0 0 0-30.2827-75.91704c-11.57871-21.794375-24.467251-37.931914-38.718837-48.462758-14.250562-10.530844-29.496801-14.250562-45.895283-11.211343-16.346293 3.142573-33.426297 15.246239-51.240011 36.360116-17.184381 21.061688-40.551578 38.665625-69.944002 52.65422-29.392424 13.988596-61.4567 25.777083-96.192829 35.417651a1005.962182 1005.962182 0 0 1-105.570407 23.261797c-35.627429 5.815449-68.267826 11.212366-97.974406 15.875572-29.706579 4.662183-54.487985 9.168824-74.39743 13.516852-19.909445 4.349051-31.016411 9.640568-33.426297 15.82236V595.735355c2.409886 8.697079 11.735275 15.82236 28.082592 21.428032a488.147756 488.147756 0 0 0 62.346977 15.822361c25.25315 4.977361 53.754275 10.426467 85.556584 16.294104a850.483084 850.483084 0 0 1 97.083106 24.258497 639.412878 639.412878 0 0 1 96.664573 39.136346 342.472955 342.472955 0 0 1 85.504396 61.038168z m-320.693929-571.236126c2.986007-7.439436 6.548136-15.508205 10.68741-24.205285a340.310709 340.310709 0 0 1 14.250562-27.977192c5.92085-10.530844 13.098319-22.057365 21.376866-34.475185 10.111289-14.878872 20.327978-30.596855 30.754445-46.995337 10.373255-16.451694 18.232247-31.382754 23.575951-44.743041 5.344728-13.412474 7.020904-24.415063 4.925173-33.112142-2.095731-8.697079-10.583033-13.046131-25.410739-13.04613H437.69262c-11.892865 0-22.843264 2.357697-32.954552 7.020903a96.818069 96.818069 0 0 0-28.972869 21.375844 265.950118 265.950118 0 0 0-28.502147 36.83186 798.227953 798.227953 0 0 0-31.644721 53.125964c-13.622252 23.576975-23.105231 44.272319-28.501124 61.980633a338.082972 338.082972 0 0 0-10.688434 44.271296 89.066525 89.066525 0 0 0 0 35.417651c4.767584-0.62831 10.426467-1.833765 16.975627-3.771906 5.343705-1.153266 11.840676-2.725064 19.594267-4.611018 7.701402-1.885953 16.60826-3.667529 26.668383-5.553483a1208.176696 1208.176696 0 0 0 27.191292-6.968715 382.00532 382.00532 0 0 0 41.442878-14.564717z"  horiz-adv-x="1024" />

    
    <glyph glyph-name="xiehui" unicode="&#58896;" d="M765.132 215.906c-3.272 9.286-25.349 72.655-85.56 72.655H552.787l12.603 43.507c54.982 13.928 103.202 26.176 138.468 68.38h153.146c42.11 0 55.153-42.56 55.153-42.56l45.593-141.982H765.132z m-23.135 223.29c-7.352 0-14.54 0.656-21.673 1.567 28.595 42.341 45.29 93.394 45.29 148.359 0 115.862-55.878 135.34-101.285 182.97-123.305-37.733 247.83 111.811 247.83-162.709 0-93.965-76.17-170.188-170.162-170.188m-28.32 135.785c0-117.764-95.47-213.173-213.2-213.173-117.762 0-213.197 95.41-213.197 213.173 0 117.757 95.435 213.179 213.197 213.179 117.73 0 213.2-95.422 213.2-213.18M465.476 730.182c-65.318-23.314 14.702-106.511-128.548-155.201 0-90.307 73.222-163.551 163.55-163.551 90.33 0 163.539 73.243 163.539 163.55-83.279 68.663-223.13 36.985-198.541 155.202M344.37 776.125c-47.642-47.972-109.617-83.107-109.617-187.003 0-55.581 17.133-125.662 46.35-168.291-1.082-0.046-2.096-0.184-3.168-0.184-93.97 0-170.152 94.771-170.152 188.736 0.001 259.439 374.905 138.743 236.587 166.742M172.26 400.449h124.26c41.399-49.52 73.866-64.924 140.98-74.027l8.663-37.86H335.338c-60.224 0-80.56-63.37-83.533-72.656H63.738l54.682 141.982s11.729 42.56 53.84 42.56M368.05 271.13h276.508c52.746 0 69.12-53.287 69.12-53.287l57.1-169.208H232.08l68.52 169.208s14.703 53.287 67.449 53.287"  horiz-adv-x="1024" />

    
    <glyph glyph-name="guidang" unicode="&#58891;" d="M772.1 578.509H249.546c-10.3 0-18.64-8.62-18.64-19.201 0-10.583 8.34-19.15 18.64-19.15H772.1c10.302 0 18.64 8.624 18.64 19.15s-8.338 19.201-18.64 19.201z m18.64 97.131H230.905c-10.357 0-18.7-8.564-18.7-19.144 0-10.582 8.344-19.089 18.7-19.089H790.74c10.358 0 18.7 8.507 18.7 19.145 0 10.525-8.341 19.088-18.7 19.088z m158.1-199.75l-73.616 275.163a12.512 12.512 0 0 1-0.618 1.902c-11.591 30.287-28.498 50.442-73.45 50.442l-581.898-1.622c-37.285 0-59.174-15.06-73.279-50.162-0.281-0.785-0.562-1.572-0.73-2.296L72.246 468.333c-5.652-5.544-9.293-12.542-9.293-20.655v-440.314c0-21.051 24.577-41.426 45.068-41.426h821.17c20.49 0 29.501 20.375 29.501 41.426V447.678c0 12.26-3.192 22.113-9.852 28.212zM734.759 165.016H286.887V276.983H734.76v-111.967z m-55.986 279.919s-39.58-0.507-59.118-0.507H411.34c-19.538 0-68.464 0.507-68.464 0.507H118.939l62.03 293.24c7.614 18.644 14.835 25.25 38.346 25.25l581.952 1.677c25.864 0 31.072-6.604 38.294-25.192l63.147-294.974H678.773v-0.001z m0 0"  horiz-adv-x="1024" />

    
    <glyph glyph-name="pingtai" unicode="&#58954;" d="M1022.319094 110.997736 629.489509 110.997736 629.489509-49.113358 747.635925-49.113358 747.635925-127.903396 356.004226-127.903396 356.004226-49.113358 471.774189-49.113358 471.774189 110.862491 78.944604 110.862491C35.434264 110.862491 0.077283 146.200151 0.077283 189.671849L0.077283 817.132679C0.077283 860.604377 35.434264 895.922717 78.944604 895.922717L1022.067925 895.922717C1065.578264 895.922717 1100.935245 860.720302 1101.167094 817.248604L1101.167094 189.787774C1101.167094 146.316075 1065.810113 110.997736 1022.319094 110.997736ZM1022.183849 817.248604 80.142491 817.248604 80.142491 187.256755 1022.067925 187.256755 1022.183849 187.256755 1022.183849 817.248604ZM315.256755 423.530264 788.151547 423.530264 788.151547 344.740226 315.256755 344.740226 315.256755 423.530264ZM315.256755 659.784453 788.151547 659.784453 788.151547 580.994415 315.256755 580.994415 315.256755 659.784453Z"  horiz-adv-x="1102" />

    
    <glyph glyph-name="yunxiangmugongdanweixintubiao-" unicode="&#58897;" d="M379.361 209.685h270.75c23.117 0 46.236 19.756 46.236 48.821v48.791c0 24.397-18.729 48.794-46.236 48.794h-270.75c-23.115 0-46.232-19.756-46.232-48.794v-48.791c0-30.175 18.725-48.821 46.232-48.821zM379.361 301.491h270.75v-48.791h-270.75v48.791zM961.596 634.868h-86.946l-31.926 106.896c-14.309 48.792-59.434 82.497-110.031 67.38l-137.598-38.344-179.386 111.533c-46.24 24.396-101.281 9.281-123.287-33.677l-114.451-213.788h-115.592c-23.117 0-46.209-19.754-46.209-48.736v-96.445c0-24.368 18.699-48.765 46.209-48.765h46.234v-518.102c0-24.396 18.699-48.82 46.209-48.82h715.439c23.088 0 46.207 19.756 46.207 48.82v522.742h45.127c23.117 0 46.234 19.757 46.234 48.765v96.419c-4.388 19.755-23.116 44.122-46.233 44.122zM745.889 760.352c23.090 4.64 50.6-9.281 55.018-33.705l23.119-96.417h-4.42l-59.406 33.731h8.779l-13.197 44.067-41.818-15.058v-9.31l-55.041 33.733v19.7l86.966 23.259zM732.693 634.868h-298.287l73.773 135.931 224.514-135.931zM328.736 824.26c14.311 24.396 40.732 29.008 59.463 19.727l78.135-48.792-82.58-160.327h-156.27l101.252 189.392zM870.262-76.040h-715.44v522.741h715.439v-522.741h0.001zM961.596 494.327h-899.217v96.419h893.713v-96.419h5.504zM365.082 692.971l-41.848 24.423-22.006-38.345 36.344-24.368 27.51 38.29zM406.873 775.468l-36.291 24.396-23.119-38.373 36.291-24.396 23.119 38.373z"  horiz-adv-x="1024" />

    
    <glyph glyph-name="dengjibiangeng" unicode="&#58909;" d="M730.667232 581.971887c-0.068562 2.690272-0.871857 5.223978-1.577939 7.827269-0.459464 1.677199-0.583285 3.450589-1.289365 5.014201-0.781806 1.763157-2.15406 3.210112-3.258207 4.839215-1.39272 2.057869-2.619664 4.177136-4.423753 5.8748-0.246617 0.226151-0.328481 0.542352-0.576121 0.76134L475.123115 823.627692c-1.235131 1.104147-2.771113 1.515516-4.115738 2.40477-2.071172 1.379417-4.02671 2.833535-6.386454 3.727904-2.215458 0.840134-4.492314 1.022283-6.812149 1.375324-1.722224 0.275269-3.278673 1.025353-5.075599 1.025353h-314.001507c-45.162596 0-81.874729-39.071877-81.874729-87.088474v-722.143091c0-48.016597 36.712133-87.088474 81.874729-87.088474h510.23889c45.162596 0 81.874729 39.071877 81.874729 87.088474v558.172599c0 0.308015-0.164752 0.564865-0.178055 0.86981z m-257.082147 174.330444l167.045527-148.543128-151.034878-1.699711c-7.581676 0-16.010649 8.717546-16.010649 21.231557V756.302331z m205.215872-747.977479c-0.001023-12.046361-8.061606-20.440541-15.309684-20.440542H124.322493c-7.249101 0-15.308661 8.392134-15.30866 20.440542V759.675148c0 12.046361 8.060583 20.440541 15.30866 20.440542h296.201096v-135.51644c0-49.958832 38.793538-90.610694 86.517469-90.610694h171.759899v-545.663704zM584.052013 239.507118H203.650213c-18.602683 0-33.69338-11.645225-33.69338-26.022676 0-14.376429 15.090697-26.022677 33.69338-26.022677h380.4018c18.602683 0 33.69338 11.645225 33.69338 26.022677 0.001023 14.377452-15.089673 26.022677-33.69338 26.022676zM169.95581 422.728046c0-14.376429 15.090697-26.022677 33.69338-26.022676h380.401799c18.602683 0 33.69338 11.645225 33.69338 26.022676s-15.090697 26.022677-33.69338 26.022677H203.650213c-18.603707 0-33.694403-11.645225-33.694403-26.022677zM933.449681 832.16002H822.049498c-18.602683 0-33.69338-15.090697-33.693379-33.722033v-693.411723c-0.630357-5.655813 0.027629-11.434423 2.304485-16.850783l55.479569-131.428332a33.715893 33.715893 0 0 1 31.05939-20.605293 33.717939 33.717939 0 0 1 31.059389 20.605293l55.479569 131.428332c0.459464 1.093914 0.185218 2.284019 0.521886 3.405563 1.811252 4.136204 2.88163 8.66331 2.881631 13.468756V798.437987c0.001023 18.631336-15.089673 33.722032-33.692357 33.722033z m-18.35095-711.661366h-74.925456V780.11569h74.925456v-659.617036z"  horiz-adv-x="1024" />

    
    <glyph glyph-name="xitongshezhi" unicode="&#58889;" d="M366.643448 197.386812H117.234051V727.93219h745.353722v-196.281385l47.106878-27.119661V776.023488H64.082504v-629.466342h302.560944zM366.643448 197.386812H117.234051V727.93219h745.353722v-196.281385l47.106878-27.119661V776.023488H64.082504v-629.466342h302.560944zM256.004605 68.715267v-54.432727h199.9878l-56.911174 54.432727zM769.189593-9.505235h-0.003069c-9.931187 0.004093-19.588127 4.109598-25.823132 10.990308-8.496511 9.314133-35.414581 33.537837-57.449434 33.537837-21.88238 0-49.218982-24.363897-57.07081-32.895201-6.219655-6.765077-15.808034-10.80202-25.644053-10.80202-4.687766 0-9.106402 0.896416-13.145391 2.671853l-0.707105 0.306992-66.975391 37.45403-0.667195 0.464581c-12.190647 8.53642-16.83134 25.230638-10.788718 38.83447 0.047072 0.102331 6.1777 14.251585 6.1777 27.151383 0 39.146579-31.851429 70.999031-70.998007 70.999031h-2.374071c-0.146333-0.005117-0.291642-0.00921-0.429788-0.00921-11.216459 0-20.345374 9.961886-23.26589 25.380041-0.231267 1.236154-5.712095 30.476105-5.712095 53.512774 0 23.040762 5.478781 52.28276 5.712095 53.519937 2.954285 15.611559 12.281721 25.63996 23.696702 25.371854h2.37407c39.146579 0 70.996984 31.849382 70.996984 70.995961 0 12.896728-6.128581 27.04189-6.193049 27.183106-6.03546 13.589506-1.364067 30.281677 10.882861 38.790468l0.693802 0.480954 70.681806 38.826284 0.735757 0.312108c3.981684 1.696642 8.338922 2.557242 12.958126 2.557242 9.816576 0 19.421328-3.949962 25.701359-10.567683 8.364505-8.757454 34.80776-31.540344 56.211232-31.540344 21.203928 0 47.485501 22.330588 55.8234 30.936593 6.245238 6.481621 15.782451 10.364045 25.497721 10.364046 4.712325 0 9.152451-0.890276 13.199626-2.648317l0.714268-0.312108 68.26885-37.927821 0.674359-0.472768c12.215206-8.523117 16.868179-25.218358 10.820439-38.82833-0.042979-0.103354-6.176676-14.253632-6.176676-27.152407 0-39.144532 31.849382-70.995961 70.995961-70.99596h2.37714c11.396561 0.254803 20.7373-9.757225 23.693632-25.371854 0.231267-1.235131 5.712095-30.475082 5.712095-53.513798 0-23.041786-5.479805-52.28276-5.716188-53.517891-2.951215-15.613606-12.292977-25.605168-23.693632-25.371854h-2.373047c-39.145555 0-70.995961-31.850405-70.995961-70.998007 0-12.894681 6.128581-27.037796 6.191003-27.177989 6.030343-13.583366 1.36816-30.278607-10.853186-38.794562l-0.683568-0.47993-69.42314-38.36989-0.722454-0.313131c-3.972475-1.709945-8.312316-2.580778-12.905938-2.580778z m-8.29799 50.182936c0.285502-0.187265 1.095961-0.50449 1.944282-0.50449 0.035816 0 0.066515 0 0.097214 0.002046l59.824527 33.064047c-1.443885 3.353374-8.046257 19.637246-8.046256 36.616965 0 50.79078 40.002063 92.415806 90.158392 95.018074 0.720408 3.985778 4.63967 26.409486 4.639671 43.231617 0 16.821107-3.918239 39.234583-4.639671 43.23264-50.155307 2.605338-90.158393 44.229341-90.158392 95.017051 0 17.008372 6.622838 33.310663 8.053419 36.639478l-58.854432 32.697703c-0.067538 0.00307-0.150426 0.00921-0.24764 0.00921-1.001817 0-1.938142-0.366344-2.250251-0.577145-0.989537-1.01512-9.518794-9.66615-21.773909-18.286481-18.140149-12.760628-35.292807-19.23304-50.984185-19.23304-15.841803 0-33.132608 6.599302-51.38839 19.611663-12.33084 8.78713-20.902052 17.60496-21.89159 18.639522-0.313132 0.211824-1.26276 0.589424-2.273786 0.589425-0.078795 0-0.148379-0.002047-0.209778-0.007164l-60.96142-33.483602c1.463328-3.396353 8.04114-19.650549 8.04114-36.602639 0-50.78771-40.002063-92.411713-90.158393-95.01705-0.719384-3.988848-4.638647-26.408463-4.638647-43.231617 0-16.819061 3.918239-39.231513 4.642741-43.228547 50.15019-2.605338 90.155323-44.228317 90.155322-95.018074 0-17.042141-6.649444-33.372062-8.065699-36.658921l57.698097-32.262798c0.036839-0.004093 0.080841-0.004093 0.128936-0.004094 0.842181 0 1.641383 0.310062 1.926886 0.493234 1.078565 1.157359 9.694803 10.280134 22.109553 19.377326 18.500353 13.55983 36.081777 20.434401 52.257178 20.434402 16.32685 0 34.043351-7.004531 52.651151-20.825305 12.484336-9.263991 21.139459-18.556635 22.21393-19.733436z m-74.748424 113.224737c-52.133358 0-94.547353 42.415019-94.547353 94.5494 0 52.132334 42.415019 94.547353 94.547353 94.547353 52.134381 0 94.551446-42.415019 94.551446-94.547353 0.001023-52.135404-42.416042-94.5494-94.551446-94.5494z m0.001023 152.094c-31.729655 0-57.542554-25.813922-57.542554-57.543577 0-31.731702 25.812899-57.545624 57.542554-57.545624 31.731702 0 57.548694 25.813922 57.548694 57.545624 0.001023 31.729655-25.815969 57.543577-57.548694 57.543577z"  horiz-adv-x="1024" />

    
    <glyph glyph-name="fanhui" unicode="&#58883;" d="M532.526-8.818l-393.020 393.020 393.020 393.020c12.259 12.259 12.433 32.893-0.187 45.511-12.707 12.708-32.995 12.704-45.511 0.188l-411.661-411.661c-7.12-7.12-10.164-17.066-8.99-26.625-1.501-9.755 1.51-20.010 8.99-27.49l411.66-411.661c12.259-12.259 32.893-12.433 45.512 0.187 12.708 12.707 12.703 32.995 0.187 45.51z"  horiz-adv-x="1024" />

    
    <glyph glyph-name="xiangmu1" unicode="&#59203;" d="M940.373333 766.293333H83.626667c-6.826667 0-11.946667-5.12-11.946667-11.946666v-146.773334c0-6.826667 5.12-11.946667 11.946667-11.946666H938.666667c6.826667 0 11.946667 5.12 11.946666 11.946666V754.346667c0 6.826667-5.12 11.946667-10.24 11.946666z m-766.293333-124.586666c-22.186667 0-39.253333 17.066667-39.253333 39.253333 0 22.186667 17.066667 39.253333 39.253333 39.253333 22.186667 0 39.253333-17.066667 39.253333-39.253333 0-22.186667-17.066667-39.253333-39.253333-39.253333z m740.693333-20.48H609.28V738.986667h303.786667v-117.76zM940.373333 469.333333H83.626667c-6.826667 0-11.946667-5.12-11.946667-11.946666v-146.773334c0-6.826667 5.12-11.946667 11.946667-11.946666H938.666667c6.826667 0 11.946667 5.12 11.946666 11.946666v146.773334c0 6.826667-5.12 11.946667-10.24 11.946666z m-766.293333-124.586666C153.6 344.746667 136.533333 361.813333 136.533333 384c0 22.186667 17.066667 39.253333 39.253334 39.253333 22.186667 0 39.253333-17.066667 39.253333-39.253333-1.706667-22.186667-18.773333-39.253333-40.96-39.253333z m740.693333-20.48H609.28v117.76h303.786667v-117.76zM940.373333 172.373333H83.626667c-6.826667 0-11.946667-5.12-11.946667-11.946666v-146.773334c0-6.826667 5.12-11.946667 11.946667-11.946666H938.666667c6.826667 0 11.946667 5.12 11.946666 11.946666v146.773334c0 6.826667-5.12 11.946667-10.24 11.946666z m-766.293333-124.586666c-22.186667 0-39.253333 17.066667-39.253333 39.253333 0 22.186667 17.066667 39.253333 39.253333 39.253333 22.186667 0 39.253333-17.066667 39.253333-39.253333 0-20.48-17.066667-39.253333-39.253333-39.253333z m740.693333-18.773334H609.28v117.76h303.786667v-117.76z"  horiz-adv-x="1024" />

    
    <glyph glyph-name="sitemap" unicode="&#59154;" d="M1024 182.857143v-182.857143a54.857143 54.857143 0 0 0-54.857143-54.857143h-182.857143a54.857143 54.857143 0 0 0-54.857143 54.857143v182.857143a54.857143 54.857143 0 0 0 54.857143 54.857143H841.142857v109.714285h-292.571428v-109.714285h54.857142a54.857143 54.857143 0 0 0 54.857143-54.857143v-182.857143a54.857143 54.857143 0 0 0-54.857143-54.857143h-182.857142a54.857143 54.857143 0 0 0-54.857143 54.857143v182.857143a54.857143 54.857143 0 0 0 54.857143 54.857143H475.428571v109.714285H182.857143v-109.714285h54.857143A54.857143 54.857143 0 0 0 292.571429 182.857143v-182.857143A54.857143 54.857143 0 0 0 237.714286-54.857143h-182.857143A54.857143 54.857143 0 0 0 0 0v182.857143A54.857143 54.857143 0 0 0 54.857143 237.714286H109.714286v109.714285c0 40.009143 33.133714 73.142857 73.142857 73.142858h292.571428v109.714285h-54.857142A54.857143 54.857143 0 0 0 365.714286 585.142857v182.857143A54.857143 54.857143 0 0 0 420.571429 822.857143h182.857142A54.857143 54.857143 0 0 0 658.285714 768v-182.857143a54.857143 54.857143 0 0 0-54.857143-54.857143H548.571429v-109.714285h292.571428c40.009143 0 73.142857-33.133714 73.142857-73.142858v-109.714285h54.857143a54.857143 54.857143 0 0 0 54.857143-54.857143z"  horiz-adv-x="1024" />

    
    <glyph glyph-name="feiyong" unicode="&#58892;" d="M608 499.2l-89.6-128-19.2-38.4c-6.4 19.2-12.8 32-19.2 38.4l-89.6 128h-76.8l128-179.2H339.2v-51.2h128v-70.4h-128v-51.2h128v-160h70.4v160h121.6v51.2h-128v70.4h121.6V320H550.4l134.4 179.2H608zM646.4 896H57.6v-1024h908.8V588.8L646.4 896z m0-70.4L896 588.8H646.4V825.6z m268.8-908.8H108.8V851.2h492.8V544h320v-627.2z"  horiz-adv-x="1024" />

    
    <glyph glyph-name="iconxiugai_wodehuodong" unicode="&#58915;" d="M832 0h-640c-35.285333 0-64 28.714667-64 64L213.504 706.816C213.333333 739.285333 242.048 768 277.333333 768h469.333334c35.285333 0 64-28.714667 64-64l85.162666-637.184C896 28.714667 867.285333 0 832 0zM277.333333 725.333333a21.333333 21.333333 0 0 1-21.333333-21.333333L170.496 61.184c0.170667-8.917333 9.728-18.517333 21.504-18.517333h640a21.333333 21.333333 0 0 1 21.333333 21.333333L768.170667 701.184C768 715.733333 758.442667 725.333333 746.666667 725.333333h-469.333334zM512 413.525333a175.189333 175.189333 0 0 0-100.906667 31.701334 176.469333 176.469333 0 0 0-69.034666 189.610666 21.546667 21.546667 0 0 0 26.112 15.104 21.333333 21.333333 0 0 0 15.104-26.112 133.546667 133.546667 0 0 1 52.309333-143.616 133.546667 133.546667 0 0 1 152.874667-0.042666 133.674667 133.674667 0 0 1 52.309333 143.658666 21.333333 21.333333 0 0 0 15.104 26.112 21.546667 21.546667 0 0 0 26.112-15.104 176.469333 176.469333 0 0 0-69.034667-189.610666 175.744 175.744 0 0 0-100.949333-31.701334z"  horiz-adv-x="1024" />

    
    <glyph glyph-name="jihua" unicode="&#58910;" d="M188.343509-53.319397c-52.908897 0-95.965792 43.056895-95.965792 95.965792V723.52916c0 52.908897 43.056895 95.965792 95.965792 95.965792h338.738567c17.636299-0.12163 31.988597-14.473928 31.988597-32.110227 0-17.636299-14.352298-31.988597-31.866967-32.110227H188.465138c-17.514669 0-31.745338-14.230669-31.745338-31.745338v-681.004395c0-17.514669 14.230669-31.745338 31.745338-31.745338h553.293266c17.514669 0 31.745338 14.230669 31.745338 31.745338v363.672646c0 0.486519 0 1.094667 0.121629 1.581185 0.729778 17.028151 14.838817 30.772301 32.110227 30.772301 17.757928 0 32.110227-14.352298 32.110227-32.110227 0-0.729778 0-1.459556-0.12163-2.310963v-361.483312c0-52.908897-43.056895-95.965792-95.965791-95.965792h-553.414895z m67.626084 205.189215c-17.757928 0-32.110227 14.352298-32.110227 32.110227 0 17.757928 14.352298 32.110227 32.110227 32.110227h418.041097c17.757928 0 32.110227-14.352298 32.110227-32.110227 0-17.757928-14.352298-32.110227-32.110227-32.110227H255.969593zM263.87552 537.679059c-17.757928 0-32.110227 14.352298-32.110227 32.110227 0 17.757928 14.352298 32.110227 32.110227 32.110227h158.118541c17.757928 0 32.110227-14.352298 32.110227-32.110227 0-17.757928-14.352298-32.110227-32.110227-32.110227H263.87552z m148.631429-248.00285c-2.797482 0-5.594964 1.094667-7.662668 3.16237-2.675852 2.675852-3.770519 6.689631-2.797482 10.46015l33.083264 123.332462c0.486519 1.824445 1.459556 3.52726 2.797482 4.865186L799.045967 792.6148c0.243259 0.243259 0.486519 0.486519 0.729778 0.608148l4.378668 4.378667c14.109039 14.109039 32.840005 21.893337 52.787267 21.893337s38.678228-7.784297 52.787266-21.893337c14.109039-14.109039 21.893337-32.840005 21.893337-52.787267s-7.784297-38.678228-21.893337-52.787266l-34.056301-34.056302-0.729778-0.729778-331.440788-331.319159c-1.337926-1.337926-3.040741-2.310963-4.865186-2.797481l-123.332463-33.083264c-0.973037-0.243259-1.824445-0.364889-2.797481-0.364889z m75.53201 86.357049l20.190522 5.351705 313.317971 313.317971-12.892742 12.771113-2.067704 1.946074-313.196342-313.196341-5.351705-20.190522zM263.87552 342.220216c-17.757928 0-32.110227 14.352298-32.110227 32.110227 0 17.757928 14.352298 32.110227 32.110227 32.110227h85.140753c17.757928 0 32.110227-14.352298 32.110227-32.110227 0-17.757928-14.352298-32.110227-32.110227-32.110227H263.87552z"  horiz-adv-x="1024" />

    
    <glyph glyph-name="xiangmu" unicode="&#58905;" d="M984.859 581.288L516.654 849.458 46.588 581.289l469.135-268.077zM46.588 447.25v-67.02l469.135-268.077L984.86 380.23v67.02L515.723 178.986zM46.588 246.191v-67.019l469.135-268.077L984.86 179.172v67.02L515.723-22.073z"  horiz-adv-x="1024" />

    
    <glyph glyph-name="hetong" unicode="&#58924;" d="M247.208081 436.130909H723.833535c13.239596 0 26.479192 13.239596 26.479192 26.479192s-13.239596 26.479192-26.479192 26.479192H247.208081c-13.239596 0-26.479192-13.239596-26.479192-26.479192s13.239596-26.479192 26.479192-26.479192z m2.647919-158.875151h150.931394c15.887515 0 29.127111 13.239596 29.127111 26.479191 0 15.887515-13.239596 26.479192-29.127111 26.479192H249.856c-15.887515 0-29.127111-10.591677-29.127111-26.479192 0-13.239596 13.239596-26.479192 29.127111-26.479191z m0-158.875152h150.931394c15.887515 0 29.127111 13.239596 29.127111 26.479192 0 15.887515-13.239596 26.479192-29.127111 26.479192H249.856c-15.887515 0-29.127111-10.591677-29.127111-26.479192 0-13.239596 13.239596-26.479192 29.127111-26.479192zM247.208081 595.006061H723.833535c13.239596 0 26.479192 13.239596 26.479192 26.479192s-13.239596 26.479192-26.479192 26.479191H247.208081c-13.239596 0-26.479192-13.239596-26.479192-26.479191s13.239596-26.479192 26.479192-26.479192zM882.708687 859.79798h-794.375758C75.093333 859.79798 61.853737 846.558384 61.853737 833.318788V-66.973737c0-13.239596 13.239596-26.479192 26.479192-26.479192h397.187879c15.887515 0 26.479192 10.591677 26.479192 26.479192s-10.591677 26.479192-26.479192 26.479192H114.812121V806.839596H856.229495v-397.187879c0-15.887515 10.591677-26.479192 26.479192-26.479192s26.479192 10.591677 26.479192 26.479192V833.318788c0 13.239596-13.239596 26.479192-26.479192 26.479192zM750.312727 277.255758c87.381333 0 158.875152-71.493818 158.875152-158.875152s-71.493818-158.875152-158.875152-158.875151S591.437576 30.999273 591.437576 118.380606s71.493818 158.875152 158.875151 158.875152z m0 52.958383c-116.508444 0-211.833535-95.325091-211.833535-211.833535 0-116.508444 95.325091-211.833535 211.833535-211.833535s211.833535 95.325091 211.833536 211.833535c0 116.508444-95.325091 211.833535-211.833536 211.833535M760.904404 213.705697l21.183354-45.014626c2.647919-2.647919 5.295838-5.295838 7.943757-5.295839l47.662546-5.295838c7.943758 0 13.239596-13.239596 5.295838-18.535434l-37.070869-31.775031c-2.647919-2.647919-2.647919-5.295838-2.647919-10.591676l10.591677-47.662546c2.647919-7.943758-7.943758-15.887515-15.887515-10.591677l-42.366707 23.831273c-2.647919 2.647919-7.943758 2.647919-10.591677 0l-42.366707-23.831273c-7.943758-5.295838-15.887515 2.647919-15.887515 10.591677l10.591676 47.662546c0 2.647919 0 7.943758-2.647919 10.591676L657.635556 139.56396c-7.943758 5.295838-2.647919 15.887515 5.295838 18.535434l47.662545 5.295838c2.647919 0 7.943758 2.647919 7.943758 5.295839l21.183354 45.014626c5.295838 7.943758 15.887515 7.943758 21.183353 0z"  horiz-adv-x="1024" />

    
    <glyph glyph-name="qingbao" unicode="&#58958;" d="M239.046375 256.306736c2.373047-3.50994 2.373047-3.50994 0 0l4.746094-7.018857c7.119141-10.528797 16.511046-9.292644 29.411866-5.683443 10.528797 7.119141 6.919597 20.019962 6.919597 20.019963-13.20065 42.214451-13.499455 88.038102-5.54325 129.21492 0 0-0.099261 15.274892-2.472307 18.783809-7.119141 10.528797-18.884093 12.801561-29.411867 5.683442-7.018857-4.746094-8.15575-10.628058-9.292644-16.511045-9.094122-47.059805-6.421246-96.392374 5.642511-144.488789zM487.788575 469.213777s4.236488-4.236488 0 0c16.945951 0 29.655414 12.709463 29.655414 29.655414 0 16.945951-12.709463 29.655414-29.655414 29.655413-97.439216 0-173.694971-76.256778-173.69497-173.69497 0-96.374978 77.321016-173.695994 173.695994-173.695995 97.438193 0 173.694971 76.256778 173.69497 173.695995v3.729951c0 16.621563-13.452383 30.364565-30.072922 30.15888-16.736173-0.206708-29.236881-12.846586-29.236881-29.652344 0-71.846328-49.378617-123.735116-114.385167-123.446543-60.686151 0.26913-114.385167 43.148729-114.385167 114.973568 0 72.019267 46.600341 114.384144 114.384143 118.620631zM797.051151 655.619234l-12.709463 160.986531-173.695994-160.986531v-144.04058l-141.508921-126.613676c-10.576893-9.463536-11.032264-25.870204-0.9967-35.906791l4.861728-4.861728c8.260128-8.260128 21.568225-8.526187 30.151717-0.602728l149.857053 138.329509h144.04058l114.385167 114.385167 46.601364 46.601364-160.986531 12.709463z m-29.655413-131.331117h-97.439217v101.675704l67.783803 72.02029v-97.439216h101.675704l-72.02029-76.256778zM299.583123 465.702813c0.923022 5.477758 0.494257 11.0558-2.070149 14.23726-7.977695 9.893324-18.884093 12.801561-29.411867 5.683442-3.50994-2.373047-8.984628-12.21009-12.80156-18.884092-6.252401-10.930957-1.036609-21.156856-1.036609-21.156856 7.119141-10.528797 18.076704-11.43033 29.411866-5.683443 5.536087 2.807952 15.131629 21.193695 15.908319 25.803689zM271.728728 265.863393zM375.34155-62.071452h226.269374L488.476237 136.038582zM387.264091 57.937806c-120.980375 40.505529-200.265116 151.23954-200.265116 288.418852 0 182.167946 127.09463 309.262576 305.026088 309.262576 29.655414 0 33.891901 0 55.07434-4.236488h4.236487c16.945951 0 25.418926 12.709463 25.418926 25.418926s-8.472975 25.418926-21.182438 25.418926c-29.655414 12.709463-29.655414 12.709463-63.547315 12.709463-199.113897 0-364.336916-160.985508-364.336916-364.336915 0-152.484903 94.414323-285.092084 229.966579-338.839195l29.609365 46.183855zM847.889003 418.375925c0 16.945951-12.709463 29.655414-29.655413 29.655414s-29.655414-12.709463-29.655414-29.655414c0-4.236488 0-8.472975 4.236488-12.709463 0-12.709463 4.236488-29.655414 4.236487-59.310827 0-142.18328-83.866083-251.895007-206.192105-290.24443l29.773093-46.438659c136.901996 51.714825 235.729839 183.646624 235.72984 340.918553 0 29.656437-4.236488 46.602388-8.472976 67.784826z"  horiz-adv-x="1024" />

    
    <glyph glyph-name="quanbuwenjian" unicode="&#58973;" d="M153.6 588.4928A102.912 102.912 0 0 0 256.4608 691.2h408.7296C721.9712 691.2 768 645.2736 768 588.4928v-511.3856A102.912 102.912 0 0 0 665.1392-25.600000000000023H256.4608A102.7072 102.7072 0 0 0 153.6 77.10720000000003V588.4928z m51.2 0.2048v-511.744c0-28.0064 22.8352-51.3536 50.944-51.3536h410.0608c27.648 0 50.9952 22.9888 50.9952 51.3024V588.6976C716.8 616.6528000000001 693.9648 640 665.856 640h-410.112C228.1472 640 204.8 617.0111999999999 204.8 588.6976zM307.2 460.8c0 14.1312 11.8272 25.6 25.4976 25.6h260.5568c14.08 0 25.4976-11.8784 25.4976-25.6 0-14.1312-11.8272-25.6-25.4976-25.6H332.6976A25.8048 25.8048 0 0 0 307.2 460.8z m0-153.6c0 14.1312 11.8272 25.6 25.4976 25.6h260.5568c14.08 0 25.4976-11.8784 25.4976-25.6 0-14.1312-11.8272-25.6-25.4976-25.6H332.6976A25.8048 25.8048 0 0 0 307.2 307.20000000000005zM768 793.6H384a25.6 25.6 0 0 1 0-51.2h383.6416C796.1088 742.4 819.2 719.104 819.2 691.2v-435.2h51.2V691.6608A102.4 102.4 0 0 1 768 793.6zM844.8 384a25.6 25.6 0 0 0 25.6-25.6v-102.4a25.6 25.6 0 0 0-51.2 0v102.4a25.6 25.6 0 0 0 25.6 25.6z"  horiz-adv-x="1024" />

    
    <glyph glyph-name="tuiguang" unicode="&#59069;" d="M532.752 34.217c-4.516 0-9.034 0-11.293 2.258l-221.316 133.241h-128.724c-13.55 0-22.583 9.034-22.583 22.583v361.333c0 13.55 9.034 22.583 22.583 22.583h130.983l216.8 153.567c6.773 4.518 15.807 4.518 22.583 2.258 9.033-4.518 13.55-11.292 13.55-20.325v-654.917c0-9.034-4.518-15.808-11.292-20.325-4.519-2.258-6.775-2.258-11.293-2.258zM194 214.884h112.917c4.518 0 9.034 0 11.293-2.258l191.958-115.175v571.358l-187.442-133.242c-4.518-2.257-9.034-4.516-13.55-4.516h-115.177v-316.165zM645.668 208.11c-6.775 0-11.293 2.258-15.808 6.773-9.033 9.034-9.033 22.583 0 31.618 74.526 76.783 74.526 198.731 0 273.258-9.033 9.034-9.033 22.583 0 31.617 9.034 9.034 22.583 9.034 31.618 0 92.591-92.592 92.591-241.642 0-336.491-4.518-4.516-9.034-6.773-15.808-6.773zM729.226 70.351c-6.773 0-11.292 2.258-15.807 6.775-9.033 9.033-9.033 22.583 0 31.617 151.31 151.31 151.31 397.466 0 548.775-9.033 9.034-9.033 22.583 0 31.617 9.034 9.034 22.583 9.034 31.618 0 169.375-169.375 169.375-442.634 0-612.007-4.518-4.516-9.034-6.775-15.81-6.775z"  horiz-adv-x="1024" />

    
    <glyph glyph-name="guanlifenxipingtaigaibian" unicode="&#58982;" d="M838.656 832H185.344C136.192 832 96 792.64 96 744.512v-465.024c0-48.128 40.192-87.488 89.344-87.488H480v-128H320c-17.6 0-32-14.4-32-32s14.4-32 32-32h384c17.6 0 32 14.4 32 32s-14.4 32-32 32H544v128h294.656c49.152 0 89.344 39.36 89.344 87.488V744.512C928 792.64 887.808 832 838.656 832z m25.344-544c0-17.6-14.4-32-32-32H192a32.064 32.064 0 0 0-32 32v448c0 17.6 14.4 32 32 32h640c17.6 0 32-14.4 32-32v-448zM511.616 569.152a32.128 32.128 0 0 1 0 45.248L421.12 704.896a31.936 31.936 0 0 1-22.72 9.344h-1.536c-1.408 0-3.328-0.384-4.992-0.64-2.368-0.384-3.52-0.896-5.76-1.792a30.976 30.976 0 0 1-10.688-7.104L285.12 614.4a32.128 32.128 0 0 1 0-45.248 32.128 32.128 0 0 1 45.248 0l35.84 35.84V363.52c0-17.472 14.336-31.808 31.808-31.808a31.936 31.936 0 0 1 31.808 31.808V605.696l36.544-36.544a32.128 32.128 0 0 1 45.248 0zM669.184 478.528l-36.48-36.544V684.16a31.936 31.936 0 0 1-31.808 31.808 31.936 31.936 0 0 1-31.808-31.808v-241.472l-35.84 35.84a32.128 32.128 0 0 1-45.248 0 32.128 32.128 0 0 1 0-45.248l90.304-90.304a31.616 31.616 0 0 1 21.696-9.536 34.624 34.624 0 0 1 23.936 9.344l90.496 90.496c12.416 12.416 12.416 32.832 0 45.248s-32.768 12.48-45.248 0z"  horiz-adv-x="1024" />

    
    <glyph glyph-name="tongji-" unicode="&#58894;" d="M0-64h1024v-64H0v64zM96 320h64v-256H96V320zM864 576h64v-512h-64V576zM288 704h64v-640h-64V704zM480 448h64v-384h-64V448zM672 896h64v-832h-64V896z"  horiz-adv-x="1024" />

    
    <glyph glyph-name="shenbao" unicode="&#59070;" d="M90.825697 557.428364v-520.285091a24.824242 24.824242 0 0 1 24.793212-24.762182h512v-74.317576h-512a99.079758 99.079758 0 0 0-99.110788 99.079758V622.064485L273.935515 879.491879h419.715879a99.079758 99.079758 0 0 0 99.110788-99.110788V598.729697h-74.317576V780.381091a24.824242 24.824242 0 0 1-24.793212 24.793212H338.571636v-148.635151a99.079758 99.079758 0 0 0-99.079757-99.110788h-148.635152z m148.635151 74.317575c13.684364 0 24.793212 11.108848 24.793213 24.762182V764.741818L131.258182 631.745939h108.202666zM388.12703 557.428364V631.745939h239.460849v-74.317575zM181.682424 309.682424V384h280.762182v-74.317576zM512 309.682424V384h115.649939v-74.317576zM181.682424 433.555394v74.317576h445.967515v-74.317576zM759.745939 144.508121v-206.444606h32.985213v206.444606h88.901818l-102.648243 121.421576-105.53406-121.421576h86.295272z m-231.268848-66.063515l251.221333 289.016242L1024 78.444606h-165.205333V-128h-165.081212v206.444606H528.446061zM792.762182 433.555394h-74.317576v115.587879h74.317576z"  horiz-adv-x="1024" />

    
    <glyph glyph-name="fangan" unicode="&#58888;" d="M933.787631-128H90.212369V896h603.168261L933.787631 649.857643z m-795.78063 47.794632h747.985998V630.261844L673.306884 848.205368H138.007001zM904.632905 609.232205h-238.973162V880.705718L694.814469 893.132322l11.709685-11.470712 218.660443-224.634772a28.437806 28.437806 0 0 0-20.551692-47.794633z m-191.178529 47.794633h146.012602l-146.729522 149.836173zM202.529755 245.276079h596.954959v-47.794632H202.529755zM202.529755 71.54259h596.954959v-47.794632H202.529755z"  horiz-adv-x="1024" />

    
    <glyph glyph-name="zonghepingjia" unicode="&#58893;" d="M865.632-71.35199999999998H77.985V771.9449999999999h141.264v-8.563c0-29.964 25.683-59.93 59.928-59.93h385.26c29.967 0 59.931 25.684 59.931 59.93v4.281h141.264v-338.175c0-17.122 12.842-29.964 29.964-29.964 17.124 0 29.966 12.842 29.966 29.964V767.663c0 34.246-25.685 59.93-59.93 59.93H724.368v4.28c0 29.966-25.683 59.93-59.931 59.93h-385.26c-34.245 0-59.928-25.684-59.928-59.93v-8.56H77.985c-34.245 4.28-59.929-25.685-59.929-55.65V-67.07000000000005c0-34.245 25.684-59.93 59.929-59.93h787.647c17.121 0 29.964 12.842 29.964 29.964 0 17.124-12.843 25.684-29.964 25.684zM279.177 831.873h385.26v-72.771h-385.26V831.873zM975.241 268.398L780.022 46.62699999999995l-109.011 97.738c-11.438 10.682-29.188 9.879-39.658-1.806-10.456-11.685-9.669-29.822 1.769-40.519l130.271-116.794c11.438-10.693 29.189-9.877 39.658 1.809l213.603 242.66c10.454 11.671 9.655 29.822-1.782 40.504-11.41 10.681-29.177 9.879-39.631-1.821zM505.145 403.458c1.238-3.291 1.864-6.313 1.864-9.05 0-7.135-2.971-12.959-8.913-17.484s-12.823-6.788-20.636-6.788c-12.51 0-20.949 5.444-25.325 16.347L434.01 430.61H315.516l-18.306-43.993c-4.347-10.991-12.874-16.481-25.587-16.481-7.449 0-14.119 2.263-20.01 6.788-5.898 4.525-8.84 10.214-8.84 17.073 0 3.015 0.619 6.171 1.864 9.462l80.629 199.114c7.762 18.371 24.386 27.563 49.865 27.563 25.777 0 42.554-9.308 50.323-27.923l79.691-198.755z m-90.591 75.697l-40.202 99.19-39.67-99.19h79.872zM694.812 489.852h-27.03v-24.684c0-7.958-2.745-14.058-8.229-18.307-5.482-4.255-12.138-6.376-19.965-6.376-7.522 0-14.105 2.121-19.741 6.376-5.636 4.249-8.454 10.349-8.454 18.307v24.684h-28.428c-8.701 0-15.539 2.397-20.505 7.199-4.973 4.795-7.456 10.625-7.456 17.484 0 6.583 2.483 12.342 7.456 17.279 4.966 4.937 11.804 7.405 20.505 7.405h28.428V563.0799999999999c0 7.951 2.818 14.052 8.454 18.307 5.636 4.249 12.219 6.376 19.741 6.376 7.827 0 14.482-2.128 19.965-6.376 5.483-4.255 8.229-10.356 8.229-18.307v-23.861h27.03c8.694 0 15.531-2.468 20.505-7.405 4.966-4.937 7.456-10.696 7.456-17.279 0-6.858-2.49-12.689-7.456-17.484-4.974-4.802-11.811-7.199-20.505-7.199zM239.898 214h406.075c15.41 0 27.875 15.312 27.875 34.234s-12.466 34.235-27.875 34.235H239.898c-15.375 0-27.842-15.313-27.842-34.235S224.523 214 239.898 214zM239.898 65h248.075c15.41 0 27.875 14.864 27.875 33.234s-12.466 33.235-27.875 33.235H239.898c-15.375 0-27.842-14.865-27.842-33.235S224.523 65 239.898 65z"  horiz-adv-x="1024" />

    
    <glyph glyph-name="tongjichaxun" unicode="&#59288;" d="M372.1 328h112v-167.9h-112V328zM540 272h112v-112H540V272z m-30.8 112c51.8 0 99.4 17.5 137.1 46.9l152.5-152.5c11.2-11.2 28.7-11.2 39.9 0s11.2 28.7 0 39.9L685.5 470.8c29.4 37.8 46.9 85.4 46.9 137.1 0 123.8-100.1 223.9-223.9 223.9S284.6 731.7 284.6 607.9 385.4 384 509.2 384z m0 391.8c93.1 0 167.9-74.9 167.9-167.9S602.3 440 509.2 440s-167.9 74.9-167.9 167.9 74.8 167.9 167.9 167.9zM901 719.9H766c7.7-17.5 14-36.4 17.5-56h120.3v-559.8H120.2V663.9H235c4.2 19.6 9.8 38.5 17.5 56h-135c-31.5 0-53.2-25.2-53.2-56v-559.8c0-30.8 21.7-56 53.2-56H484v-56H369.3c-15.4 0-28-12.6-28-28s12.6-28 28-28h279.9c15.4 0 28 12.6 28 28s-12.6 28-28 28H540v56h361c30.8 0 58.8 25.2 58.8 56V663.9c0 30.8-28 56-58.8 56zM204.1 160.1h112V407.8c-14 9.8-22.4 20.3-30.8 32.2h-81.2v-279.9z"  horiz-adv-x="1024" />

    


  </font>
</defs>
</svg>
